PathFileType	4	(X/Y/Z)	C:/Users/opensim2020/Desktop/walking_exp_matlab/subject02_walking12_straight_04.trc	
DataRate	CameraRate	NumFrames	NumMarkers	Units	OrigDataRate	OrigDataStartFrame	OrigNumFrames	
100.00	100.00	6	42	mm	100.00	2008	125	
Frame#	Time	LFHD			RFHD			LBHD			RBHD			C7			T10			CLAV			STRN			RBAK			LSHO			LUPA			LELB			LFRM			LWRA			LWRB			LFIN			RSHO			RUPA			RELB			RFRM			RWRA			RWRB			RFIN			LASI			RASI			LPSI			RPSI			LTHI			LKNE			LTIB			LANK			LHEE			LTOE			RTHI			RKNE			RTIB			RANK			RHEE			RTOE			*39			*40			*41			
		X1	Y1	Z1	X2	Y2	Z2	X3	Y3	Z3	X4	Y4	Z4	X5	Y5	Z5	X6	Y6	Z6	X7	Y7	Z7	X8	Y8	Z8	X9	Y9	Z9	X10	Y10	Z10	X11	Y11	Z11	X12	Y12	Z12	X13	Y13	Z13	X14	Y14	Z14	X15	Y15	Z15	X16	Y16	Z16	X17	Y17	Z17	X18	Y18	Z18	X19	Y19	Z19	X20	Y20	Z20	X21	Y21	Z21	X22	Y22	Z22	X23	Y23	Z23	X24	Y24	Z24	X25	Y25	Z25	X26	Y26	Z26	X27	Y27	Z27	X28	Y28	Z28	X29	Y29	Z29	X30	Y30	Z30	X31	Y31	Z31	X32	Y32	Z32	X33	Y33	Z33	X34	Y34	Z34	X35	Y35	Z35	X36	Y36	Z36	X37	Y37	Z37	X38	Y38	Z38	X39	Y39	Z39	X40	Y40	Z40	X41	Y41	Z41	X42	Y42	Z42	

16	0.150	1437.57739	564.94641	1721.19592	1296.93909	579.31061	1695.44763	1463.66846	685.00555	1633.92456	1325.73828	710.87018	1606.30432	1393.32483	741.18018	1495.73511	1391.88965	799.93011	1223.18628	1409.06641	601.54645	1427.95313	1413.42151	553.25922	1254.35315	1336.73706	800.50299	1319.72046	1570.77612	673.28906	1483.48523	1698.04004	635.75006	1319.75867	1757.23096	576.18304	1204.49182	1796.38525	475.03506	1123.78735	1792.59949	343.03073	1085.00928	1819.98950	378.91190	1051.12256	1840.54822	319.89157	1031.23669	1210.62817	662.49133	1450.53748	1133.54797	728.56458	1269.26282	1116.68860	747.09161	1126.62500	1090.10364	757.12024	1009.66302	1098.80017	749.76440	873.17169	1070.74146	797.40399	887.00885	1061.79553	782.41382	815.99683	1559.35693	605.09802	957.43677	1307.40100	559.45813	942.19995	1440.02307	794.88928	1007.99103	1327.48181	781.05414	1000.73596	1593.94312	753.39954	663.85400	1555.77625	836.26929	477.07706	1549.86243	944.18207	314.05936	1515.59338	994.98419	92.32443	1463.16919	1033.13977	70.93898	1536.96521	846.12994	36.62706	1232.96655	562.40796	644.90332	1287.69604	469.78293	464.95392	1280.72192	418.43301	287.08179	1318.42444	343.87256	107.55939	1373.35681	354.10620	42.56650	1327.62280	183.39435	123.24933	1357.17810	682.57733	1771.00562	-3360.34790	2845.30005	1034.08728			 
17	0.160	1438.18713	551.83179	1719.66382	1297.53345	566.07806	1694.04309	1464.13611	671.82501	1632.23389	1326.14160	697.51752	1604.71960	1393.81604	727.65204	1493.84570	1392.48071	785.77594	1221.29724	1409.44250	587.74286	1426.33447	1413.63501	539.09418	1252.75769	1337.54419	786.73438	1317.75061	1571.25732	659.83203	1481.72693	1698.33081	621.32721	1318.78101	1758.29248	560.64191	1204.22961	1796.79871	457.02017	1126.34058	1792.04858	324.05536	1091.96265	1819.76770	358.70981	1056.93958	1840.27002	298.94260	1039.39270	1210.97375	649.27423	1448.64441	1134.36169	716.58643	1267.79358	1117.37158	736.43060	1125.62122	1090.03784	747.96979	1009.19006	1098.04736	741.99188	872.51630	1070.63074	790.44238	887.02777	1061.40869	776.96497	816.13635	1560.62610	591.38269	955.08191	1308.74744	544.21185	940.53369	1440.01672	780.28387	1006.14417	1327.20715	766.04657	999.35559	1594.89124	742.20502	663.26556	1556.82239	825.65570	476.79498	1551.06873	936.85175	316.15091	1516.90845	993.45911	95.94942	1464.56177	1032.18469	76.10242	1537.23999	846.01581	36.57701	1233.44751	544.46375	644.88031	1288.18494	453.12268	464.67987	1280.93567	403.87805	285.71780	1318.96411	333.11212	105.23316	1373.87598	343.80167	40.22509	1326.94141	172.43213	118.01278	1357.73694	669.47491	1769.30408	-3357.38892	2845.82495	1034.35315			 
18	0.170	1438.75513	538.65796	1718.50391	1298.04431	552.73340	1692.95898	1464.49304	658.57220	1630.83826	1326.39417	684.12769	1603.45959	1394.14478	714.06519	1492.37195	1393.09631	771.51581	1219.72729	1409.70496	573.88416	1425.05762	1413.99573	524.76611	1251.64099	1338.10632	772.67499	1316.08447	1571.55505	646.16931	1480.25732	1698.49939	607.22699	1317.84985	1758.80176	545.48499	1203.64990	1797.03821	439.68619	1128.66638	1791.01575	306.04770	1098.42358	1818.90173	339.41168	1062.27075	1839.41663	279.11124	1047.06311	1210.93994	635.54773	1446.92700	1134.94421	704.20752	1266.67761	1118.08923	725.26447	1124.80286	1090.01001	738.24127	1008.76855	1097.34192	734.21759	871.92706	1070.70325	782.75226	887.27307	1060.83130	770.70276	816.11102	1561.72095	577.26306	953.01520	1309.77771	528.40857	939.18713	1439.81274	765.25751	1004.48242	1326.83496	750.66064	998.38770	1595.55798	730.00537	662.68848	1557.94788	814.16693	476.72858	1552.50854	928.64191	318.51791	1518.19788	991.24298	100.16695	1465.99756	1030.77917	82.15471	1537.50317	845.88672	36.52029	1233.56702	525.02148	645.67047	1288.68213	435.98563	464.42429	1281.40784	391.08487	284.21213	1319.19104	325.19626	101.95931	1374.49438	337.39240	37.36251	1325.66541	164.64445	110.59167	1358.22729	656.32281	1768.10864	-3357.37305	2845.89819	1034.47046			 
19	0.180	1439.24597	525.42035	1717.57556	1298.47620	539.38037	1692.23376	1464.72595	645.29407	1629.80408	1326.56812	670.67285	1602.54639	1394.22363	700.31091	1491.15198	1393.63196	757.03442	1218.37366	1409.72656	559.96539	1424.13989	1414.13647	510.36685	1250.98547	1338.31189	758.35614	1314.49768	1571.72620	632.43756	1479.18604	1698.29529	593.41541	1316.90723	1759.47729	531.28198	1203.35071	1796.30237	423.21640	1130.64368	1789.48572	288.93643	1104.35168	1817.61597	321.10388	1067.18384	1837.92017	260.35532	1054.11719	1211.02393	622.18756	1445.62720	1135.55896	691.94244	1265.81482	1118.95374	713.59161	1124.14294	1090.59058	728.04443	1008.28168	1096.75098	726.41565	871.45081	1071.05432	774.35681	887.67377	1060.68628	763.35815	816.32257	1562.64685	562.51270	951.35602	1310.48950	512.06171	938.29742	1439.50745	749.78687	1002.95172	1326.54102	734.93219	997.64203	1596.56140	716.54279	662.32452	1559.07922	801.80518	476.93179	1553.87830	919.76410	321.51199	1519.69946	988.76172	105.43447	1467.41614	1028.49768	89.00326	1537.61877	845.55542	36.15787	1233.58057	504.55356	647.32239	1288.90845	418.79330	464.21353	1281.81116	379.72113	282.11511	1319.52991	319.68164	98.02173	1375.44836	333.51996	33.81418	1324.12512	159.39420	102.04356	1358.42273	642.93878	1767.02832	-3357.48633	2845.82227	1034.44019			 
20	0.190	1439.54968	512.17023	1716.89026	1298.78772	525.93549	1691.72327	1464.85339	631.94287	1628.97144	1326.63794	657.18500	1601.89087	1394.36719	686.57153	1490.29968	1394.06543	742.36182	1217.01062	1409.63208	546.15265	1423.53943	1414.36658	495.96805	1250.70239	1338.56384	744.07031	1313.17700	1571.66406	618.60913	1478.37329	1698.01538	579.71826	1316.14148	1759.54517	517.48456	1202.64368	1795.69727	407.67490	1132.52661	1787.63196	273.01334	1109.70605	1815.67419	303.75598	1071.47974	1835.88135	242.67665	1060.47412	1210.97522	608.66199	1444.68787	1135.90808	678.77802	1265.21667	1119.73999	701.50110	1123.83606	1091.32727	717.41620	1008.35217	1096.65930	716.83160	871.32928	1071.35278	764.84058	888.15363	1060.60095	754.99915	816.66321	1563.38147	547.14417	950.13263	1310.84399	495.18808	937.94257	1439.01709	733.82660	1001.56366	1326.21631	718.86340	996.94604	1597.15259	702.16388	661.94818	1560.26855	788.53247	477.44141	1555.02881	910.24292	325.13525	1521.08093	985.62335	111.20290	1468.72009	1025.48340	96.58683	1538.15198	845.48956	36.37656	1233.04858	483.34985	649.09741	1288.68884	402.67737	463.17505	1282.07227	369.88287	279.54459	1320.08386	316.56299	93.42490	1376.29065	331.60660	29.94455	1322.87036	156.16946	93.13626	1358.98242	629.76984	1766.52844	-3360.26563	2845.29272	1034.20447			 
21	0.200	1439.82654	498.86569	1716.28503	1299.05823	512.39655	1691.40002	1464.78589	618.57288	1628.25183	1326.59778	643.68036	1601.38708	1394.25073	672.76904	1489.55273	1394.24097	727.41254	1215.73743	1409.43604	532.18188	1423.22571	1414.24011	481.16965	1250.61182	1338.84851	729.67004	1311.87183	1571.45032	604.64581	1477.87109	1697.38464	566.05420	1315.33008	1759.38611	504.25620	1201.91785	1794.15308	392.62054	1133.65869	1785.17358	257.85483	1114.24426	1813.31824	287.34555	1075.19531	1833.42822	226.08743	1066.12378	1210.78052	595.14783	1444.06201	1136.35742	666.17798	1264.71985	1120.13721	688.81989	1123.48572	1091.92590	705.43353	1008.20770	1096.66516	706.45483	871.38354	1071.67676	754.43762	888.69800	1060.83289	745.51685	817.05273	1563.77478	531.07288	949.70538	1310.93530	477.90787	938.20111	1438.44336	717.34436	1000.29901	1325.97644	702.34454	996.32111	1597.72644	686.78253	661.65930	1561.43628	774.11829	477.94846	1556.05811	900.05701	329.27548	1522.57703	981.89624	117.70185	1470.19446	1021.55768	105.10886	1538.51843	845.15186	36.33664	1232.62671	461.70618	651.07874	1287.92163	387.54764	461.72723	1282.09998	361.58746	276.47476	1320.77209	314.47675	89.00000	1376.89893	331.28247	26.37060	1321.97961	154.50760	83.55991	1359.17639	616.31891	1765.95630	-3360.30713	2845.16577	1034.25647			 
